# xmcd
#
# Track frame offsets: 
#        150
#        21418
#        35742
#        51028
#        65636
#        81277
#        94038
#        106755
#        127580
#        139651
#        149607
#        164667
#        180137
#        196856
#        213115
#        231324
#        244954
#        260337
#
# Disc length: 3699 seconds
#
# Revision: 0
# Processed by: cddbd v1.5.2PL0 Copyright (c) Steve Scherf et al.
# Submitted via: ExactAudioCopy v1.0b3
#
DISCID=fa0e7112
DTITLE=Various Artist - NCountry plouzaky 2
DYEAR=2009
DGENRE=Country
TTITLE0=Vsichni jsou uz v Mexiku
TTITLE1=Tisic mil
TTITLE2=Sbohem lasko, ja jedu dal
TTITLE3=Nakladak
TTITLE4=Toulavej
TTITLE5=Snidane v trave
TTITLE6=Ovecka
TTITLE7=Don Diego
TTITLE8=Jarosovsky pivovar
TTITLE9=Valcicek
TTITLE10=Smutny psani
TTITLE11=Pisen, co mne ucil listopad
TTITLE12=Podvod
TTITLE13=Vysocinou
TTITLE14=Jen blazen zarli
TTITLE15=Dostaveni s Panem Bohem
TTITLE16=Rana v ulicich
TTITLE17=Cista jak Vizovice
EXTD=
EXTT0=
EXTT1=
EXTT2=
EXTT3=
EXTT4=
EXTT5=
EXTT6=
EXTT7=
EXTT8=
EXTT9=
EXTT10=
EXTT11=
EXTT12=
EXTT13=
EXTT14=
EXTT15=
EXTT16=
EXTT17=
PLAYORDER=
